<?xml version="1.0" encoding="utf-8"?>
<!-- Generator: Adobe Illustrator 24.2.0, SVG Export Plug-In . SVG Version: 6.00 Build 0)  -->
<svg version="1.1" id="图层_1" xmlns="http://www.w3.org/2000/svg" xmlns:xlink="http://www.w3.org/1999/xlink" x="0px" y="0px"
	 viewBox="0 0 256 256" style="enable-background:new 0 0 256 256;" xml:space="preserve">
<style type="text/css">
	.st0{fill:#FF8A00;}
	.st1{fill:#060301;}
	.st2{fill:#F1F1F1;}
	.st3{fill:#3D95D8;}
	.st4{fill:#8D562E;}
	.st5{fill:#FCC53D;}
	.st6{fill:#E51425;}
	.st7{fill:#AF0E1B;}
	.st8{fill:#3C95D9;}
	.st9{fill:#FDC73D;}
	.st10{fill:#FEC83E;}
	.st11{fill:#3E96DA;}
	.st12{fill:#FDBF3C;}
	.st13{fill:#02060A;}
	.st14{fill:#ED8B51;}
	.st15{fill:#F68A49;}
</style>
<path class="st0" d="M51.2,0h153.6C233.1,0,256,22.9,256,51.2v153.6c0,28.3-22.9,51.2-51.2,51.2H51.2C22.9,256,0,233.1,0,204.8V51.2
	C0,22.9,22.9,0,51.2,0z"/>
<g>
	<path class="st1" d="M164.3,131c20.8,3.9,37.8,13.2,51.6,27.9c16.8,17.9,24.6,39.2,24.6,63.4c0,12.4,0.2,12.4-12.6,12.4
		c-67.7,0-135.4-0.1-203.1,0.1c-4.9,0-6.3-1.3-6.1-6c0.4-11.9,0-23.9,0.6-35.8c0.7-15.3,7.4-28.3,18.5-39
		c6.5-6.3,13.1-12.7,19.7-18.9c1.9-1.8,2.7-3.2,0.9-5.6c-6.9-9.8-10.5-20.7-10.8-32.5C47.2,82.6,45.7,68.1,49,54
		c5.7-24.9,28.2-42.6,54.1-43.2c7.8-0.2,15.6-0.1,23.3,0c6.2,0,11.9,1.7,16.8,5.4c1.7,1.3,3.3,1.5,5.4,1.5
		c15.7,0.3,27.2,10.5,27.5,25.8c0.4,19,0.9,38.1-0.4,57.1C174.8,111.5,170.6,121.2,164.3,131z M33.3,199.7c-0.1,6-0.1,12-0.2,18
		c-0.1,2.2,0.6,3,2.9,3c8.6-0.2,17.2-0.2,25.7-0.2c8.5,0.1,16.9,0.2,25.4,0.2c24.8,0,49.7-0.1,74.5-0.2c9.5,0,19.1,0.1,28.6,0.1
		c9.5,0,19.1,0,28.6,0c3.1-0.3,7.7,2.6,7.1-4.4c-2.7-33.8-25-61.1-58.6-69.4c-7.3-1.8-14.1-5.9-23.1-3.5c-7.7,2.1-16.7,1.4-25.1-0.2
		c19.2-2.8,36.3-17.5,40.2-34.4c3.7-11.5,1.9-23.3,1.9-34.9c0.1-9.8,0.3-19.7,0.2-29.5c-0.2-9.7-9.5-15-18.3-10.6
		c-2.4,1.2-3.4,1.4-4.8-1.2c-2.2-4.3-5.9-6.7-10.9-7.2c-8.3-0.9-16.5-0.7-24.8-0.2C97,25.2,91.3,26.3,86.1,29
		C67.7,38.4,60.5,53.7,62,73.5c0.1,11.7-1.8,23.5,2.1,35c4.7,15.8,15.3,26.1,30.8,32.1c2.7,1.1,5.8,1,8.3,2.9
		c-5.3,0-10.6,0.4-15.9,0c-4.7-0.3-10,2-14-2.5c-0.7-0.8-1.6-0.1-2.3,0.6c-3.9,3.8-7.7,7.6-11.6,11.4c-0.9,0.9,0,1.5,0.5,2.2
		c-1.3,0.8-2.6,1.7-3.9,2.5C40.4,167.6,32.8,181.6,33.3,199.7z"/>
	<path class="st2" d="M161.6,220.4c-24.8,0.1-49.7,0.2-74.5,0.2c-8.5,0-16.9-0.1-25.4-0.2c-0.1-6.9-0.2-13.8-0.2-20.8
		c0.1-14.5,0.2-29,0.3-43.5c13.8,6.2,27.5,12.4,41.3,18.5c1.6,0.7,3.1,2.4,5.2,1.5l-0.1-0.1c-0.6,1.2,0.6,1,1.1,1.3
		c2.5,1.8,4.3,1.2,5.6-1.4c2.2,0.4,4.1-0.7,6-1.6c13.5-6.1,27-12.1,40.6-18.2c0.1,14.5,0.2,29.1,0.3,43.6
		C161.8,206.6,161.7,213.5,161.6,220.4z"/>
	<path class="st3" d="M161.4,73.5c0,11.7,1.7,23.5-1.9,34.9c-7.9,0-15.9-0.4-23.7,0.1c-6.8,0.4-12.4-1-16.6-6.4
		c-5-1.3-9.9-1.4-14.8,0c-4.2,5.5-9.8,6.8-16.6,6.4c-7.9-0.5-15.8-0.1-23.7-0.1c-3.9-11.5-2-23.3-2.1-35c2.4-0.1,4.7-0.2,7.1-0.2
		c11.4,0.1,22.9,0.3,34.3,0.3c17.1,0,34.1-0.2,51.2-0.3C156.8,73.3,159.1,73.4,161.4,73.5z M83.2,90.7c-0.1,3.5-0.4,7.1,3.1,9.4
		c3.2,2.1,6.4,1.8,9.1-0.7c3.2-3.1,3.5-12.6,0.4-16c-2.7-2.9-5.9-3.6-9.4-1.3C83.1,84.1,83,87.4,83.2,90.7z M140.4,91.4
		c-0.1-1.7,0.1-3.5-0.3-5.1c-0.7-3.5-3.2-5.5-6.7-5.6c-3.4-0.1-6.1,1.6-7,5.1c-0.9,3.6-1,7.2,0.1,10.7c1,3.4,3.6,4.9,7.2,4.8
		c3.5-0.2,5.5-2.2,6.3-5.3C140.5,94.6,140.3,93,140.4,91.4z"/>
	<path class="st4" d="M69,73.3c-2.4,0.1-4.7,0.2-7.1,0.2C60.5,53.7,67.7,38.4,86.1,29c5.2-2.7,10.9-3.8,16.8-4.1
		c8.3-0.5,16.5-0.8,24.8,0.2c4.9,0.6,8.7,2.9,10.9,7.2c1.3,2.6,2.4,2.4,4.8,1.2c8.8-4.5,18.1,0.9,18.3,10.6
		c0.2,9.8-0.1,19.7-0.2,29.5c-2.3-0.1-4.6-0.2-6.9-0.3c-1-2.9,1.9-7-3.1-8.9c-6.3-2.4-10.2-7.2-12.6-13.2c-1-2.5-1.9-3.4-4.4-1.4
		c-2.8,2.3-6.3,2.8-10,2.7c-8.7-0.3-17-2.8-25.2-5.4c-3.9-1.2-7.5-1.1-11.3,0.2C76.6,51.2,69.7,60.7,69,73.3z"/>
	<path class="st5" d="M119.1,102.1c4.2,5.4,9.8,6.9,16.6,6.4c7.9-0.5,15.8-0.1,23.7-0.1c-3.9,16.9-21,31.6-40.2,34.4
		c-5.3,1.4-10.8,0.6-16.2,0.6c-2.4-1.8-5.6-1.8-8.3-2.9c-15.4-6-26-16.4-30.8-32.1c7.9,0,15.8-0.4,23.7,0.1
		c6.8,0.4,12.4-0.9,16.6-6.4c1.8,2.9,2.9,6.3,7.4,6.3C116.2,108.5,117.3,105,119.1,102.1z M111.3,129.3c5.1,0,9.4-1.1,12.8-4.5
		c1.4-1.4,1.8-3.1,0.7-4.7c-1.2-1.7-3.2-1.7-4.7-0.5c-5.7,4.4-11.3,4-16.9,0c-1.6-1.1-3.5-1.2-4.7,0.5c-1.2,1.6-0.7,3.3,0.7,4.7
		C102.6,128.2,106.9,129.2,111.3,129.3z"/>
	<path class="st6" d="M103.1,143.5c5.4,0,10.8,0.8,16.2-0.6c8.4,1.6,17.4,2.3,25.1,0.2c9-2.4,15.8,1.7,23.1,3.5
		c33.6,8.3,55.9,35.6,58.6,69.4c0.5,6.9-4.1,4-7.1,4.4c0.1-3.6-0.5-7.2-1-10.8c-3.4-25.7-24.1-49-49.3-55.9c-2.3-0.6-3.6-0.1-5,1.4
		c-0.8,0.1-1.6,0.1-2.1,0.9c-13.5,6.1-27,12.1-40.6,18.2c-1.9,0.9-3.7,2-6,1.6c8.1-8.2,16.1-16.4,24.5-24.9c-6.1-1-50.7-0.9-55,0
		c0.3,2.1,2.2,3,3.5,4.3c6.7,7.1,14.4,13.1,20.4,20.8c-2.1,0.9-3.6-0.7-5.2-1.5c-13.8-6.1-27.5-12.3-41.3-18.5
		c-0.4-0.9-1.3-0.9-2.1-0.9c-0.5-0.7-1.4-1.3-0.5-2.2c3.9-3.8,7.7-7.6,11.6-11.4c0.6-0.6,1.5-1.4,2.3-0.6c4,4.4,9.3,2.2,14,2.5
		C92.5,143.9,97.8,143.5,103.1,143.5z"/>
	<path class="st7" d="M163.6,155.2c1.3-1.6,2.6-2.1,5-1.4c25.2,6.9,45.8,30.2,49.3,55.9c0.5,3.6,1.1,7.1,1,10.8
		c-9.5,0-19.1,0-28.6,0c-0.1-6.9-0.1-13.8-0.2-20.8c0.6-5.7-0.5-11.3-2.2-16.7C183.9,170.3,175.1,161.6,163.6,155.2z"/>
	<path class="st8" d="M59.8,155.2c0.8,0.1,1.6,0.1,2.1,0.9c-0.1,14.5-0.2,29-0.3,43.5c-9.4,0-18.8,0-28.2,0
		c-0.5-18.1,7.1-32.1,22.6-42C57.2,156.9,58.5,156,59.8,155.2z"/>
	<path class="st9" d="M33.3,199.7c9.4,0,18.8,0,28.2,0c0.1,6.9,0.2,13.8,0.2,20.8c-8.6,0.1-17.2,0-25.7,0.2c-2.3,0-3-0.8-2.9-3
		C33.3,211.7,33.3,205.7,33.3,199.7z"/>
	<path class="st10" d="M190.1,199.7c0.1,6.9,0.1,13.8,0.2,20.8c-9.5,0-19.1-0.1-28.6-0.1c0.1-6.9,0.2-13.8,0.3-20.7
		C171.3,199.7,180.7,199.7,190.1,199.7z"/>
	<path class="st11" d="M190.1,199.7c-9.4,0-18.8,0-28.2,0c-0.1-14.5-0.2-29.1-0.3-43.6c0.4-0.9,1.3-0.8,2.1-0.9
		c11.5,6.4,20.3,15.1,24.2,27.8C189.6,188.4,190.7,193.9,190.1,199.7z"/>
	<path class="st12" d="M108.4,176.1c-6-7.7-13.8-13.7-20.4-20.8c-1.2-1.3-3.2-2.2-3.5-4.3c4.3-0.9,48.9-1,55,0
		c-8.4,8.5-16.5,16.7-24.5,24.9c-1.3,2.6-3.1,3.2-5.6,1.4c-0.1-0.7-0.3-1.2-1.1-1.3L108.4,176.1z"/>
	<path class="st6" d="M108.4,176c0.8,0.1,1,0.7,1.1,1.3C108.9,177,107.8,177.2,108.4,176z"/>
	<path class="st9" d="M69,73.3c0.6-12.6,7.6-22.1,19-26c3.8-1.3,7.4-1.4,11.3-0.2c8.2,2.6,16.4,5.1,25.2,5.4c3.6,0.1,7.1-0.4,10-2.7
		c2.5-2,3.4-1.1,4.4,1.4c2.4,6,6.3,10.9,12.6,13.2c5,1.9,2,5.9,3.1,8.9c-17.1,0.1-34.1,0.3-51.2,0.3C91.9,73.6,80.5,73.4,69,73.3z"
		/>
	<path class="st13" d="M83.2,90.7c-0.2-3.3-0.1-6.6,3.1-8.7c3.5-2.3,6.7-1.6,9.4,1.3c3.1,3.4,2.9,13-0.4,16
		c-2.7,2.6-5.9,2.9-9.1,0.7C82.8,97.8,83.1,94.2,83.2,90.7z"/>
	<path class="st13" d="M140.4,91.4c-0.1,1.5,0.1,3.2-0.3,4.6c-0.8,3.1-2.9,5.1-6.3,5.3c-3.6,0.2-6.2-1.4-7.2-4.8
		c-1.1-3.5-1-7.2-0.1-10.7c0.9-3.5,3.5-5.2,7-5.1c3.5,0.1,5.9,2.1,6.7,5.6C140.5,87.9,140.3,89.7,140.4,91.4z"/>
	<path class="st14" d="M119.1,102.1c-1.8,2.8-2.9,6.3-7.4,6.3c-4.5,0-5.6-3.4-7.4-6.3C109.2,100.8,114.1,100.8,119.1,102.1z"/>
	<path class="st15" d="M111.3,129.3c-4.4,0-8.8-1-12.2-4.5c-1.4-1.4-1.9-3.1-0.7-4.7c1.2-1.7,3.1-1.6,4.7-0.5c5.7,4,11.2,4.5,16.9,0
		c1.5-1.2,3.4-1.2,4.7,0.5c1.2,1.6,0.7,3.3-0.7,4.7C120.7,128.2,116.4,129.3,111.3,129.3z"/>
</g>
</svg>
